<?xml version="1.0" encoding="utf-8"?>
<!-- Generator: Adobe Illustrator 21.0.2, SVG Export Plug-In . SVG Version: 6.00 Build 0)  -->
<!DOCTYPE svg PUBLIC "-//W3C//DTD SVG 1.1//EN" "http://www.w3.org/Graphics/SVG/1.1/DTD/svg11.dtd">
<svg version="1.1" id="Layer_1" xmlns="http://www.w3.org/2000/svg" xmlns:xlink="http://www.w3.org/1999/xlink" x="0px" y="0px"
	 width="250px" height="138px" viewBox="0 0 250 138" style="enable-background:new 0 0 250 138;" xml:space="preserve">
<style type="text/css">
	.st0{fill:#938F8E;}
	.st1{fill:#F6E9B9;}
	.st2{fill:#FFFFFF;}
	.st3{fill:none;stroke:#FFFFFF;stroke-width:1.000000e-03;}
	.st4{fill:#928E8E;}
	.st5{clip-path:url(#SVGID_2_);fill:#938F8E;}
	.st6{clip-path:url(#SVGID_4_);fill:#938F8E;}
	.st7{fill:none;}
</style>
<g id="L3">
	<g>
		<path class="st2" d="M125,98.4c-16.2,0-29.4-13.2-29.4-29.4s13.2-29.4,29.4-29.4s29.4,13.2,29.4,29.4S141.2,98.4,125,98.4z"/>
		<path class="st0" d="M125,40.2c3.8,0,7.7,0.7,11.2,2.3c3.5,1.4,6.6,3.5,9.2,6.1c2.6,2.6,4.7,5.8,6.1,9.1c1.6,3.6,2.3,7.3,2.3,11.2
			c0,3.8-0.7,7.7-2.3,11.2c-1.4,3.5-3.5,6.5-6.1,9.1c-2.6,2.6-5.8,4.7-9.1,6.1c-3.6,1.6-7.3,2.3-11.2,2.3c-3.8,0-7.7-0.7-11.2-2.3
			c-3.5-1.4-6.5-3.5-9.1-6.1c-2.6-2.6-4.7-5.8-6.1-9.1c-1.8-3.4-2.5-7.2-2.5-11c0-3.8,0.7-7.7,2.3-11.2c1.4-3.5,3.5-6.6,6.1-9.2
			s5.8-4.7,9.1-6.1C117.3,40.9,121.2,40.2,125,40.2 M125,39c-16.6,0-30,13.4-30,30s13.4,30,30,30s30-13.4,30-30S141.6,39,125,39
			L125,39z"/>
	</g>
</g>
<g id="L5">
	<g>
		<path class="st0" d="M125,50.6c4.9,0,9.5,1.9,13,5.4c3.5,3.5,5.4,8,5.4,13c0,4.9-1.9,9.5-5.4,13c-3.5,3.5-8,5.4-13,5.4
			s-9.5-1.9-13-5.4c-3.5-3.5-5.4-8-5.4-13s1.9-9.5,5.4-13C115.5,52.6,120.1,50.6,125,50.6 M125,41.2c-15.4,0-27.8,12.5-27.8,27.8
			s12.5,27.8,27.8,27.8s27.8-12.5,27.8-27.8S140.4,41.2,125,41.2L125,41.2z"/>
	</g>
</g>
<g id="L4">
	<path d="M125,86.4c-9.6,0-17.3-7.8-17.3-17.3s7.7-17.4,17.3-17.4s17.3,7.8,17.3,17.3S134.5,86.4,125,86.4z M125,52.1
		c-9.4,0-17,7.7-17,17c0,9.4,7.7,16.9,17,16.9s17-7.7,17-17C142,59.6,134.4,52.1,125,52.1z"/>
	<g>
		<g>
			<g>
				<defs>
					<circle id="SVGID_1_" cx="125" cy="69" r="17.2"/>
				</defs>
				<clipPath id="SVGID_2_">
					<use xlink:href="#SVGID_1_"  style="overflow:visible;"/>
				</clipPath>
				<rect x="105.8" y="51.6" class="st5" width="19.1" height="17.6"/>
			</g>
		</g>
		<g>
			<g>
				<defs>
					<circle id="SVGID_3_" cx="125" cy="69" r="17.2"/>
				</defs>
				<clipPath id="SVGID_4_">
					<use xlink:href="#SVGID_3_"  style="overflow:visible;"/>
				</clipPath>
				<rect x="125" y="69" class="st6" width="19.1" height="17.6"/>
			</g>
		</g>
		<g>
			<path class="st0" d="M125,86.5c-9.6,0-17.5-7.8-17.5-17.5c0-9.6,7.8-17.5,17.5-17.5c9.6,0,17.5,7.8,17.5,17.5
				C142.4,78.7,134.6,86.5,125,86.5z M125,52.2c-9.4,0-16.9,7.6-16.9,16.9c0,9.4,7.6,16.8,16.9,16.8s16.8-7.6,16.8-16.9
				S134.2,52.2,125,52.2z"/>
		</g>
	</g>
</g>
<g id="L2">
	<g>
		<path class="st7" d="M125,94c-12.8,0-23.2-10.3-23.2-23.2s10.3-23.2,23.2-23.2s23.2,10.3,23.2,23.2S137.8,94,125,94z"/>
		<path class="st2" d="M103.9,53.9l2.5-2.5c1-1,1.9-1.1,2.8-0.2c0.5,0.5,0.6,1.2,0.4,1.8l0,0c0.7-0.5,1.6-0.4,2.3,0.4
			c0.8,0.8,0.8,2-0.5,3.4l-2.4,2.4L103.9,53.9z M107,55.3l1.4-1.4c0.5-0.5,0.5-1.1,0-1.4c-0.5-0.5-1-0.5-1.4,0.1l-1.4,1.4L107,55.3z
			 M109.3,57.5l1.6-1.6c0.6-0.6,0.6-1.2,0-1.7c-0.5-0.5-1.1-0.5-1.7,0.1l-1.6,1.6L109.3,57.5z"/>
		<path class="st2" d="M121,44h1.8l2.2,5.8l0,0l1.9-5.8h1.8l0.1,7.3h-1.2l-0.1-5.6l0,0l-1.9,5.6h-1.1l-2.2-5.6l0,0l0.1,5.6h-1.2
			L121,44z"/>
		<path class="st2" d="M141.8,49.4l0.8,1l-3.2,4.7l0,0l5.2-2.6l0.8,1l-3.2,4.8l0,0l5-2.8l0.8,1l-6.8,3.4l-0.6-0.8l3.2-4.8l0,0
			l-5.2,2.6l-0.8-1L141.8,49.4z"/>
	</g>
</g>
</svg>
