<?xml version="1.0" encoding="utf-8"?>
<!-- Generator: Adobe Illustrator 21.0.2, SVG Export Plug-In . SVG Version: 6.00 Build 0)  -->
<!DOCTYPE svg PUBLIC "-//W3C//DTD SVG 1.1//EN" "http://www.w3.org/Graphics/SVG/1.1/DTD/svg11.dtd">
<svg version="1.1" id="Layer_1" xmlns:sketch="http://www.bohemiancoding.com/sketch/ns"
	 xmlns="http://www.w3.org/2000/svg" xmlns:xlink="http://www.w3.org/1999/xlink" x="0px" y="0px" width="250px" height="138px"
	 viewBox="0 0 250 138" style="enable-background:new 0 0 250 138;" xml:space="preserve">
<style type="text/css">
	.st0{fill:#938F8E;}
	.st1{fill:#FFFFFF;}
	.st2{fill:none;stroke:#FFFFFF;stroke-width:1.000000e-03;}
</style>
<title>Group</title>
<desc>Created with Sketch.</desc>
<g id="Page-1" sketch:type="MSPage">
	<g id="logo_illu8_cmyk_1206" sketch:type="MSLayerGroup">
		<g id="Group" sketch:type="MSShapeGroup">
			<path id="Fill-1" class="st0" d="M101.8,28h46.5v82h-46.5V28z"/>
			<path id="Fill-2" class="st0" d="M102.3,28.6h45.4v80.8h-45.4V28.6z"/>
			<path id="Fill-3" class="st1" d="M102.3,28.6h45.4v80.8h-45.4V28.6z"/>
			<path id="Stroke-4" class="st2" d="M102.3,28.6h45.4v80.8h-45.4V28.6"/>
			<path id="Fill-5" class="st0" d="M106.1,53.4L106.1,53.4c0-1.1,0.6-2.2,0.4-3.4c-0.4-0.2-0.8-0.4-1-0.8c0-0.5,0.1-1.1-0.3-1.5
				c1.4-1.2,1.4-3,2.4-4.3c0-0.9,0.8-1.3,0.9-2.1c-0.2-0.3-0.7-0.2-0.8-0.5c0-0.9,0.8-1.4,0.6-2.4l1.1-2.4c2-1.4,2.5-4,4.9-4.6
				c0.7-0.7,1.6-0.8,2.4-1.2c0.9-0.7,1.8-1.8,2-1.6h29.1v25.1v55.7h-45.3v-22c0.4-0.1,0.7-0.2,1.1-0.3c2.6-1,5.7-0.9,7.9-2.8
				c-0.5-3-1.2-6.2-0.7-9.4c-0.2-1.9,0.3-4.3-0.4-6.1v-0.1c-0.4-1.5-1.2-2.8-1.8-4.2c-0.5-1.1-0.9-2.3-0.8-3.6
				c0.5,0.2,0.6,0.8,0.8,1.3c0.4,0.7,1.2,1.3,2.2,1c0.3-0.2,0.7-0.4,0.8-0.7c0-0.6-1.4-0.8-0.3-1.3c0.3,0,0.5,0.2,0.8,0.1
				c0.3-0.3,0.4-0.7,0.3-1.1l0,0c-0.1-0.7-0.4-1.4-0.2-2.1c0-0.5,0.4-0.9,0.7-1.3l0,0c0.2-0.3,0.3-0.6,0.1-1c-0.7-0.6-1-1.5-1.4-2.3
				c-0.5-1.1-1-2.1-2.2-2.7c-0.6-0.1-1,0.4-1.5,0.7c-0.3,0.6-0.6,1.3-0.8,2c-0.1,0.4-0.2,0.9-0.3,1.3c-0.4,0.2-0.5-0.4-0.7-0.6
				C106.2,53.9,106.2,53.7,106.1,53.4"/>
			<path id="Fill-6" class="st1" d="M139.4,68.6c0,0.1-0.1,0.3-0.1,0.4c-0.3,0.4-0.5,0.8-1,0.9c0.1-0.4,0.1-0.8,0.2-1.3
				c0-0.5,0.1-1,0.1-1.4l0.8-0.8C139.9,67,139.8,67.9,139.4,68.6"/>
			<path id="Fill-7" class="st1" d="M132.4,68.6c0.3,0.1,0.7,0.2,1,0.3c0.2,0.1,0.3,0.2,0.4,0.3c0,0.2,0,0.4-0.2,0.4
				c-1.3,0-2.5-0.5-3.6-0.9c-0.1-0.1-0.2-0.1-0.3-0.2h-1.9c0.8,0.1,1.5,0.4,2,0.9c-0.5,0.9-1.3,2-0.6,3c0.6,0.6,1.6,0.8,1.9,1.7
				c0.1,0.7-0.2,1.2-0.5,1.6c-1.1,1-2.7,1.2-4.1,0.8c-1.6-0.4-3.1-1.8-3.5-3.4c-0.2-1.4,0.5-2.5,0.7-3.8c-0.1-0.3-0.2-0.6-0.2-0.9
				c-0.1-0.5-0.2-1.1-0.6-1.5c0-0.4,0.4-0.4,0.6-0.5c1.5,0.3,2.4,1.8,3.9,2c0.1,0,0.3,0,0.4,0h1.9c-0.3-0.1-0.6-0.2-0.8-0.5
				C130.2,67.9,131.4,68.3,132.4,68.6"/>
			<path id="Fill-8" class="st1" d="M119.4,53.3c-0.3,1.2-0.4,2.3-0.6,3.5c-0.1,0.9-0.3,1.9-0.4,2.8c-0.1,0.2-0.2,0.4-0.2,0.6
				c-0.3,0.5-0.6,1-0.7,1.6c1,0.5,1.8-0.2,2.7-0.3l0.3,0.3c0,0.9-0.4,1.7-0.6,2.6c-0.2,0.7-0.2,1.4,0.2,2.1c0.2,0.1,0.5,0.1,0.7-0.2
				c0.2-0.7,0.5-1.3,0.7-1.9c0.4-1,0.8-1.9,1.2-2.9c0.3-0.5,0.6-0.9,1-1.4c0.8-0.9,1.9-1.7,2.9-2.3c0.8-0.1,1.6-0.7,2.4-0.3
				c-0.4,1-1.5,1.7-2.3,2.5c0,0.1-0.1,0.1-0.1,0.2c-1,1.2-2,2.6-1.3,4.2c1.3-0.8,3-1.1,4.6-0.8c1-0.2,2.1,0.1,3,0.3l0.3-0.2
				c-0.4-0.3-0.9-0.5-1.2-1c-0.2-0.8,0.7-1.3,1.1-2c0.2-0.4-0.5-0.2-0.6-0.4c-0.1,0-0.1,0-0.2-0.1c-0.3-0.1-0.7-0.1-1,0h-1.2
				c-0.3-0.2-0.6-0.6-0.8-0.9c1.3-0.6,3.1-0.7,4.5-0.2c0.6-0.2,0.7-1.2,1.4-1c0.2-0.4,0.1-0.9,0.1-1.3l0,0c-0.3-1.1-0.1-2.2,0-3.3
				c0.2-1.4,0.3-2.8-0.5-4c-0.4-0.7-1.4-0.4-1.8,0.2c-0.5,1.4-1.5,2.9-2.8,3.8c-0.5,0.4-1.1,0.7-1.7,0.9c0.1,0.4,0.3,0.8,0.2,1.2
				c-1.1,0.2-2.3,0.2-3.5,0.4c-1.2-1.1-3.1-0.8-4.4-1.7c0.8-0.8,2-0.8,3.1-0.7c0.5,0.3,1.3,0.4,1.8,0.1c0-0.1,0-0.1,0-0.1
				c-0.1-0.1-0.4-0.1-0.5-0.2c-0.7-1-2-0.3-3-0.2C121.3,53.7,120.3,52.6,119.4,53.3C119.4,53.3,119.4,53.4,119.4,53.3"/>
			<path id="Fill-9" class="st1" d="M135.1,67.4c0.2,0.3-0.2,0.6-0.4,0.7c-2.4,0.6-4.2-1.1-6.5-0.7c-0.5,0.2-1.1,0.4-1.7,0.2
				c-0.3-0.4-1-0.5-0.9-1c0.9-0.5,1.7-1.4,2.6-1.7C130.9,64.8,133.4,65.4,135.1,67.4"/>
			<path id="Fill-10" class="st0" d="M109.9,60.2c0.1,0.2,0.2,0.5,0.5,0.3v-0.4c0-0.4-0.5-0.4-0.8-0.4l0.1,0.2
				C109.8,59.9,109.8,60.1,109.9,60.2"/>
			<path id="Fill-11" class="st1" d="M130.1,60.2C130.1,60.2,130.1,60.2,130.1,60.2c0.5,0.1,0.8,0.1,1.2,0H130.1"/>
			<path id="Fill-12" class="st0" d="M107.2,56.8c0,0.1,0,0.2,0,0.4V56.8l1.4-3.4v-0.1l0.5-0.6c0.5-0.3,0.8,0.4,1.2,0.2l-0.1-0.1
				c-0.4-0.4-0.8-1.2-1.5-1c-0.7,0.3-1,1-1.2,1.6c-0.1,0.4-0.2,0.8-0.3,1.2C107.2,55.3,107.1,56.1,107.2,56.8"/>
			<path id="Fill-13" class="st0" d="M107.8,56.8c-0.1,0.9,0,1.8,0.7,2.3c0.6,0.5,0.7-0.3,0.8-0.6c0.2-0.9,1.2-1.1,1.7-1.7
				c0.2-0.2,0.3-0.5,0.2-0.9c-0.5-0.4-1.1-0.5-1.7-0.3c-0.6,0.2-1.2,0.4-1.7,0.8C107.8,56.6,107.8,56.7,107.8,56.8L107.8,56.8"/>
			<path id="Fill-14" class="st1" d="M135.9,37c0.5,0.2,1,0.5,1.1,1.1c0.3,1.6-0.4,3.2-0.1,4.8c0.8,1,1.4,1.9,2.4,2.7l0.2,0.4
				c-1.1,0.3-2.2,1-3.2,1.6c-1.2-0.3-2.5-0.8-3.7-0.2c-0.4,0.1-0.7,0.5-1.2,0.3c-0.7-1-2.1-0.5-3.1-0.4c-1.4,0.4-2.8,0.5-3.9,1.5
				l-3.3,1.1c-0.4,0-0.8-0.3-0.8-0.7c-0.3-0.6,0.1-1.2,0.1-1.7c-0.4-1.6-1.4-3-1.1-4.9c0-0.8-0.3-1.7,0.3-2.4
				c1.6-1.4,2.5-4.3,5.1-3.7c1.2,0.4,2-0.5,3.2-0.5C130.8,35.9,133.2,36.8,135.9,37"/>
			<path id="Fill-15" class="st1" d="M127.9,51.3c0.1,0.3-0.3,0.4-0.4,0.4c-0.8,0.2-1.8,0-2.5,0.4c-0.7,0.2-1.3,0-1.8-0.5
				c0.1-0.5,0.8-0.2,1.1-0.4C125.4,51,126.8,50.8,127.9,51.3"/>
			<path id="Fill-16" class="st0" d="M102.2,109h45.8v0.6h-45.8V109z"/>
			<path id="Fill-17" class="st0" d="M147.1,28.3h1.1v81.3h-1.1V28.3z"/>
			<path id="Fill-18" class="st0" d="M102.2,87.7h0.6v21.8h-0.6V87.7z"/>
			<path id="Fill-19" class="st0" d="M118.4,28.3h29.2v0.9h-29.2V28.3z"/>
			<path id="Fill-20" class="st1" d="M108.2,92.1v-1.4c0-0.8-0.1-1.3-1-1.3s-0.9,0.7-0.9,1.2v5.9c0,0.7,0.1,1.3,1,1.3
				c1,0,1-0.7,1-1.4V95h2v1.6c0,0.9,0,2.8-3,2.8c-0.6,0-1.5-0.1-2.2-0.5c-0.9-0.6-0.9-1.4-0.9-2.1v-6c0-0.9,0-1.5,0.6-2.1
				c0.8-0.9,2.1-0.9,2.5-0.9c3,0,3,1.8,3,2.6v1.7H108.2"/>
			<path id="Fill-21" class="st1" d="M115.9,90.7c0-0.6,0-1.4-1-1.4c-1.1,0-1.1,0.8-1.1,1.5v5.6c0,0.6,0,1.4,1,1.4s1-0.8,1-1.3
				L115.9,90.7L115.9,90.7z M118.1,96.7c0,0.8-0.2,1.4-0.6,1.8c-0.7,0.7-1.7,0.8-2.4,0.8c-2.5,0-3.1-1.2-3.1-2.6v-6.2
				c0-0.5,0-1.3,0.6-1.9c0.4-0.5,1.3-0.8,2.5-0.8c1,0,1.8,0.3,2.3,0.7c0.6,0.5,0.7,1,0.7,2.1V96.7L118.1,96.7z"/>
			<path id="Fill-22" class="st1" d="M120.1,88h5.4v1.7h-3.4v2.8h3.2v1.7h-3.2v5h-2.1V88"/>
			<path id="Fill-23" class="st1" d="M126.7,88h5.4v1.7h-3.4v2.8h3.2v1.7h-3.2v5h-2.1L126.7,88"/>
			<path id="Fill-24" class="st1" d="M133.1,88h5.4v1.7h-3.3v2.6h3.1V94h-3.1v3.4h3.5v1.7h-5.5V88"/>
			<path id="Fill-25" class="st1" d="M140.4,88h5.4v1.7h-3.3v2.6h3.1V94h-3.1v3.4h3.5v1.7h-5.5V88"/>
			<path id="Fill-26" class="st1" d="M107.8,100.6v1.3h-1.9v1.7h1.7v1.3h-1.7v3.2h-1.8v-7.5H107.8"/>
			<path id="Fill-27" class="st1" d="M113.2,100.6v1.3h-2v1.7h2v1.4h-2v1.8h2.1v1.3h-4v-7.6L113.2,100.6"/>
			<path id="Fill-28" class="st1" d="M114.9,100.6h1.8v6.2h1.9v1.3h-3.7V100.6"/>
			<path id="Fill-29" class="st1" d="M120.2,100.6h1.8v6.2h1.9v1.3h-3.7L120.2,100.6"/>
			<path id="Fill-30" class="st1" d="M126.8,106.2c0,0.3,0,0.6,0.6,0.6c0.5,0,0.6-0.2,0.6-0.6v-3.9c0-0.5-0.2-0.6-0.7-0.6
				c-0.4,0-0.6,0.2-0.6,0.6L126.8,106.2L126.8,106.2z M125.1,102.7c0-0.6,0.1-1.2,0.5-1.7c0.6-0.6,1.4-0.6,2-0.6
				c2.4,0,2.4,1.6,2.4,2.4v2.9c0,0.6,0,1.3-0.6,1.9c-0.5,0.5-1.4,0.6-1.9,0.6c-2.4,0-2.4-1.5-2.4-2.4V102.7L125.1,102.7z"/>
			<path id="Fill-31" class="st1" d="M131.4,100.6h1.7l0.5,5.8h0.1l0.9-5.8h2.1l1,5.8h0.1l0.4-5.8h1.8l-0.9,7.6h-2.4l-1-5.9l-1,5.9
				h-2.4L131.4,100.6"/>
			<path id="Fill-32" class="st1" d="M142.4,104.5c-0.8-0.6-1-0.8-1-1.8c0-1.5,0.5-2.2,2.4-2.2c2,0,2.2,0.8,2.1,2.4h-1.7v-0.5
				c0-0.4,0-0.6-0.5-0.6s-0.5,0.4-0.5,0.7c0,0.4,0,0.6,0.3,0.8l1.6,1.1c0.7,0.5,1,0.7,1,1.9c0,0.8-0.2,1.2-0.5,1.5
				c-0.3,0.3-0.8,0.6-1.9,0.6c-0.8,0-1.5-0.1-1.9-0.5c-0.5-0.5-0.5-1.1-0.5-2.1h1.8v0.6c0,0.2,0,0.6,0.5,0.6c0.6,0,0.6-0.4,0.6-0.5
				c0-0.6,0-0.6-0.7-1.1L142.4,104.5"/>
		</g>
	</g>
</g>
</svg>
