<?xml version="1.0" standalone="no"?>
<!DOCTYPE svg PUBLIC "-//W3C//DTD SVG 20010904//EN"
 "http://www.w3.org/TR/2001/REC-SVG-20010904/DTD/svg10.dtd">
<svg version="1.0" xmlns="http://www.w3.org/2000/svg"
 width="1200.000000pt" height="527.000000pt" viewBox="0 0 1200.000000 527.000000"
 preserveAspectRatio="xMidYMid meet">

<g transform="translate(0.000000,527.000000) scale(0.100000,-0.100000)"
fill="#918E8E" stroke="none">
<path d="M5765 5259 c-773 -72 -1489 -488 -1926 -1119 l-63 -90 -1885 0 -1886
0 185 -185 185 -185 1602 0 c882 0 1603 -3 1603 -7 0 -5 -13 -41 -30 -80 -27
-69 -75 -217 -100 -310 l-11 -43 -1312 0 -1312 0 185 -185 185 -185 1095 0
1095 0 0 -220 0 -220 -875 0 -875 0 185 -185 185 -185 720 -2 720 -3 22 -85
c19 -70 82 -265 108 -332 7 -17 -24 -18 -561 -18 l-569 0 190 -190 190 -190
480 0 481 0 19 -32 c87 -149 337 -431 506 -573 664 -557 1537 -754 2366 -535
603 160 1128 528 1487 1044 l67 96 477 0 477 0 190 190 190 190 -567 0 -566 0
35 98 c33 90 66 199 93 300 l11 42 717 0 717 0 185 185 185 185 -872 0 -871 0
0 220 0 220 1091 0 1092 0 185 185 185 185 -1311 0 -1311 0 -27 103 c-23 83
-69 218 -111 320 -7 16 73 17 1597 17 l1603 0 185 185 185 185 -1885 0 -1885
1 -70 101 c-367 531 -963 925 -1600 1059 -233 48 -561 69 -780 48z m615 -379
c663 -117 1221 -501 1570 -1080 202 -336 320 -760 320 -1154 0 -407 -115 -827
-320 -1166 -378 -627 -1005 -1026 -1729 -1101 -239 -25 -562 0 -796 62 -408
107 -774 322 -1067 628 -243 254 -410 530 -518 860 -82 250 -113 442 -113 711
0 271 31 460 115 717 231 704 811 1261 1530 1468 228 65 389 85 663 81 170 -3
248 -9 345 -26z"/>
<path d="M4190 2640 l0 -590 120 0 120 0 0 458 c0 251 4 450 9 442 5 -8 64
-214 131 -457 l124 -443 127 0 126 0 71 253 c39 138 97 344 129 457 l58 205 3
-457 2 -458 120 0 120 0 0 590 0 590 -197 -2 -197 -3 -117 -400 -117 -400 -22
75 c-12 41 -65 221 -118 400 l-97 325 -198 3 -197 2 0 -590z"/>
<path d="M5710 2640 l0 -590 130 0 130 0 0 590 0 590 -130 0 -130 0 0 -590z"/>
<path d="M6230 2640 l0 -590 120 0 120 0 0 381 c0 232 4 378 9 374 5 -3 125
-174 267 -380 l258 -375 133 0 133 0 0 590 0 590 -125 0 -125 0 -2 -389 -3
-389 -265 389 -265 389 -127 0 -128 0 0 -590z"/>
<path d="M7540 2640 l0 -590 130 0 130 0 0 590 0 590 -130 0 -130 0 0 -590z"/>
</g>
</svg>
