<?xml version="1.0" standalone="no"?>
<!DOCTYPE svg PUBLIC "-//W3C//DTD SVG 20010904//EN"
 "http://www.w3.org/TR/2001/REC-SVG-20010904/DTD/svg10.dtd">
<svg version="1.0" xmlns="http://www.w3.org/2000/svg"
 width="2121.000000pt" height="2048.000000pt" viewBox="0 0 2121.000000 2048.000000"
 preserveAspectRatio="xMidYMid meet">

<g transform="translate(0.000000,2048.000000) scale(0.100000,-0.100000)"
fill="#918E8E" stroke="none">
<path d="M8405 18939 c-920 -25 -1824 -208 -2627 -533 -1611 -651 -2859 -1864
-3571 -3472 -381 -860 -595 -1777 -658 -2819 -15 -254 -6 -983 15 -1205 65
-674 187 -1259 384 -1840 678 -1994 2121 -3537 4016 -4292 1521 -606 3351
-671 4931 -173 2552 804 4378 2996 4810 5773 65 418 89 762 89 1247 0 600 -43
1071 -145 1620 -426 2277 -1788 4101 -3745 5013 -891 416 -1909 654 -2894 677
-118 3 -244 7 -280 8 -36 2 -182 0 -325 -4z m520 -2089 c609 -39 1152 -193
1659 -472 131 -72 354 -215 461 -296 1055 -798 1759 -2118 1954 -3662 38 -300
46 -439 46 -820 0 -467 -24 -751 -95 -1170 -258 -1500 -970 -2719 -1990 -3406
-690 -466 -1481 -683 -2400 -661 -677 17 -1260 159 -1804 440 -244 126 -411
234 -645 418 -147 116 -495 466 -623 627 -589 741 -977 1686 -1132 2762 -138
954 -77 1901 179 2790 533 1846 1805 3112 3411 3394 318 56 666 76 979 56z"/>
<path d="M17335 7833 c-541 -32 -1075 -166 -1542 -388 l-112 -53 5 -34 c2 -18
25 -246 49 -507 25 -261 47 -476 49 -478 1 -2 63 33 137 77 473 285 928 423
1344 407 626 -23 1019 -409 955 -939 -55 -461 -382 -1011 -1044 -1758 -252
-283 -1161 -1171 -1593 -1553 l-43 -39 0 -519 0 -519 2065 0 2065 0 0 485 0
485 -1265 0 c-696 0 -1265 2 -1265 5 0 2 165 167 366 367 386 382 649 655 825
853 681 773 1029 1406 1120 2035 16 111 16 438 0 565 -105 837 -614 1348
-1473 1479 -192 30 -445 41 -643 29z"/>
</g>
</svg>
