<?xml version="1.0" encoding="UTF-8"?>
<svg width="450px" height="223px" viewBox="0 0 450 223" version="1.1" xmlns="http://www.w3.org/2000/svg" xmlns:xlink="http://www.w3.org/1999/xlink">
    <!-- Generator: Sketch 61.2 (89653) - https://sketch.com -->
    <title>Artboard</title>
    <desc>Created with Sketch.</desc>
    <g id="Artboard" stroke="none" stroke-width="1" fill="none" fill-rule="evenodd">
        <g id="ProGlove-Logo-no-Slogan-RGB-HEX" transform="translate(77.000000, 94.000000)">
            <path d="M12.810974,16.1978961 C16.9696753,16.1978961 18.3231818,14.3121039 18.3231818,11.4599221 C18.3231818,8.60738961 16.9209351,6.81872727 12.810974,6.81872727 L7.44498701,6.81872727 L7.44498701,16.1978961 L12.810974,16.1978961 Z M0,0.775285714 C0,0.485298701 0.193558442,0.29174026 0.482844156,0.29174026 L12.9561429,0.29174026 C22.3353117,0.29174026 25.8165584,5.17488312 25.8165584,11.3631429 C25.8165584,17.793 22.2872727,22.7729221 13.0532727,22.7729221 L7.44498701,22.7729221 L7.44498701,34.2303896 C7.44498701,34.5207273 7.25177922,34.7142857 6.96179221,34.7142857 L0.482844156,34.7142857 C0.193558442,34.7142857 0,34.5207273 0,34.2303896 L0,0.775285714 L0,0.775285714 Z" id="Fill-1" fill="#C0BCBB"></path>
            <path d="M51.7372597,6.77945455 L45.8305714,6.77945455 L45.8305714,15.5421818 L52.1243766,15.5421818 C55.6585714,15.5421818 57.1113117,13.7998052 57.1113117,11.0878831 C57.1113117,8.86125974 55.5621429,6.77945455 51.7372597,6.77945455 Z M57.8371558,34.7142857 C57.6435974,34.7142857 57.4984286,34.6175065 57.4496883,34.4235974 C55.6585714,30.1635584 53.7222857,26.1935065 51.9792078,22.1266753 L45.8305714,22.1266753 L45.8305714,34.2296883 C45.8305714,34.5207273 45.637013,34.7142857 45.3463247,34.7142857 L38.8586104,34.7142857 C38.5682727,34.7142857 38.3750649,34.5207273 38.3750649,34.2296883 L38.3750649,0.775987013 C38.3750649,0.485649351 38.5682727,0.29174026 38.8586104,0.29174026 L51.834039,0.29174026 C61.4688312,0.29174026 64.6152078,5.8597013 64.6152078,11.0394935 C64.6152078,15.5905714 62.8240909,18.7856883 59.1931169,20.5287662 L65.3897922,33.8916623 C65.5833506,34.3268182 65.3414026,34.7142857 64.8578571,34.7142857 L57.8371558,34.7142857 L57.8371558,34.7142857 Z" id="Fill-3" fill="#C0BCBB"></path>
            <path d="M91.0934416,6.74824675 C85.2824805,6.74824675 83.6680909,11.9599481 83.6680909,17.4483117 C83.6680909,23.0285455 85.3747013,28.148026 91.0934416,28.148026 C96.8125325,28.148026 98.4725065,23.0285455 98.4725065,17.4483117 C98.4725065,11.914013 96.9044026,6.74824675 91.0934416,6.74824675 Z M91.0934416,34.513013 C81.1770779,34.513013 76.4734675,27.0413766 76.4734675,17.4483117 C76.4734675,7.76302597 81.2233636,0.29174026 91.0934416,0.29174026 C101.055039,0.29174026 105.713766,7.76302597 105.713766,17.4483117 C105.713766,27.0876623 101.14761,34.513013 91.0934416,34.513013 L91.0934416,34.513013 Z" id="Fill-4" fill="#C0BCBB"></path>
            <path d="M140.474688,33.8208312 C140.290948,33.8208312 140.106506,33.6826753 140.060221,33.4978831 L139.321753,30.6846234 C137.984727,32.5293896 135.217403,34.513013 131.389714,34.513013 C121.196688,34.513013 116.539013,27.2254675 116.539013,17.4483117 C116.539013,7.62487013 121.611857,0.29174026 131.158987,0.29174026 C138.630623,0.29174026 143.887909,5.22607792 144.256792,11.1755455 C144.256792,11.4525584 144.026065,11.6832857 143.749403,11.6832857 L137.476987,11.637 C137.246961,11.637 137.108455,11.4984935 137.062519,11.2681169 C136.462558,8.31635065 134.617442,6.70196104 131.158987,6.70196104 C125.670273,6.70196104 123.872143,11.8217922 123.872143,17.4483117 C123.872143,23.0285455 125.532468,28.2402468 131.436,28.2402468 C135.817013,28.2402468 137.569208,25.7955195 137.707714,21.5526623 L131.297143,21.5526623 C131.020481,21.5526623 130.836039,21.3682208 130.836039,21.0919091 L130.836039,15.9724286 C130.836039,15.6954156 131.020481,15.510974 131.297143,15.510974 L144.026065,15.510974 C144.303078,15.510974 144.48787,15.6954156 144.48787,15.9724286 L144.48787,33.3593766 C144.48787,33.6363896 144.303078,33.8208312 144.026065,33.8208312 L140.474688,33.8208312" id="Fill-5" fill="#938F8E"></path>
            <path d="M159.663974,0.775285714 C159.663974,0.485298701 159.857532,0.29174026 160.147169,0.29174026 L166.673805,0.29174026 C166.963792,0.29174026 167.157351,0.485298701 167.157351,0.775285714 L167.157351,27.8973117 L182.434792,27.8973117 C182.72513,27.8973117 182.918338,28.0908701 182.918338,28.3808571 L182.918338,34.2303896 C182.918338,34.5207273 182.72513,34.7142857 182.434792,34.7142857 L160.147169,34.7142857 C159.857532,34.7142857 159.663974,34.5207273 159.663974,34.2303896 L159.663974,0.775285714" id="Fill-6" fill="#938F8E"></path>
            <path d="M206.373623,6.74824675 C200.562662,6.74824675 198.948273,11.9599481 198.948273,17.4483117 C198.948273,23.0285455 200.654883,28.148026 206.373623,28.148026 C212.092714,28.148026 213.753039,23.0285455 213.753039,17.4483117 C213.753039,11.914013 212.184584,6.74824675 206.373623,6.74824675 Z M206.373623,34.513013 C196.45761,34.513013 191.753649,27.0413766 191.753649,17.4483117 C191.753649,7.76302597 196.503195,0.29174026 206.373623,0.29174026 C216.335571,0.29174026 220.993597,7.76302597 220.993597,17.4483117 C220.993597,27.0876623 216.427792,34.513013 206.373623,34.513013 L206.373623,34.513013 Z" id="Fill-7" fill="#938F8E"></path>
            <path d="M230.292818,1.01723377 C230.196039,0.630467532 230.437987,0.29174026 230.824052,0.29174026 L237.834935,0.29174026 C238.028143,0.29174026 238.221701,0.388519481 238.270091,0.582077922 L245.908636,23.6428831 L253.692351,0.582077922 C253.74074,0.388519481 253.934299,0.29174026 254.126805,0.29174026 L260.798961,0.29174026 C261.185727,0.29174026 261.427675,0.630467532 261.330896,1.01723377 L249.630779,34.4239481 C249.58274,34.6175065 249.389182,34.7142857 249.196325,34.7142857 L242.47613,34.7142857 C242.233831,34.7142857 242.089013,34.6175065 242.040623,34.4239481 L230.292818,1.01723377" id="Fill-8" fill="#938F8E"></path>
            <path d="M272.576922,0.775285714 C272.576922,0.485298701 272.77013,0.29174026 273.059766,0.29174026 L296.26574,0.29174026 C296.555727,0.29174026 296.749286,0.485298701 296.749286,0.775285714 L296.749286,6.52838961 C296.749286,6.81872727 296.555727,7.01193506 296.26574,7.01193506 L279.973519,7.01193506 L279.973519,13.5873117 L294.767065,13.5873117 C295.057403,13.5873117 295.250961,13.7808701 295.250961,14.0701558 L295.250961,19.7755714 C295.250961,20.0652078 295.057403,20.2587662 294.767065,20.2587662 L279.973519,20.2587662 L279.973519,28.0421299 L296.410909,28.0421299 C296.701247,28.0421299 296.894455,28.2356883 296.894455,28.526026 L296.894455,34.2303896 C296.894455,34.5207273 296.701247,34.7142857 296.410909,34.7142857 L273.059766,34.7142857 C272.77013,34.7142857 272.576922,34.5207273 272.576922,34.2303896 L272.576922,0.775285714" id="Fill-9" fill="#938F8E"></path>
        </g>
    </g>
</svg>