<?xml version="1.0" encoding="utf-8"?>
<!-- Generator: Adobe Illustrator 21.0.2, SVG Export Plug-In . SVG Version: 6.00 Build 0)  -->
<!DOCTYPE svg PUBLIC "-//W3C//DTD SVG 1.1//EN" "http://www.w3.org/Graphics/SVG/1.1/DTD/svg11.dtd">
<svg version="1.1" id="Layer_1" xmlns="http://www.w3.org/2000/svg" xmlns:xlink="http://www.w3.org/1999/xlink" x="0px" y="0px"
	 width="250px" height="138px" viewBox="0 0 250 138" style="enable-background:new 0 0 250 138;" xml:space="preserve">
<style type="text/css">
	.st0{fill:#938F8E;}
	.st1{fill:#F6E9B9;}
	.st2{fill:#FFFFFF;}
	.st3{fill:none;stroke:#FFFFFF;stroke-width:1.000000e-03;}
	.st4{fill:#928E8E;}
	.st5{clip-path:url(#SVGID_2_);fill:#938F8E;}
	.st6{clip-path:url(#SVGID_4_);fill:#938F8E;}
	.st7{fill:none;}
</style>
<g id="layer1" transform="translate(-4699.3528,644.37708)">
	<g id="g31580" transform="translate(17.716541,17.745664)">
		<path id="path31402" class="st4" d="M4790-606.3c12,0.9,18.8-2.5,21.1-7h12.3c-3.7,10.7-15.2,17.3-33.4,16.5V-606.3"/>
		<path id="path31404" class="st4" d="M4832.3-596.9l-4.4,6.2l10.2,14.9v-21.1H4832.3z M4801.8-595.6v19.1l9.6-14.3l-4.5-5.9
			c3.7-1.1,7.2-2.7,10.1-5l2.9,3.7l5.5-8.3h31.2v9.5h-7.1v23.1h-24.3l-6.2-9.3l-6.5,9.3h-22.8v-6.3c-1.7,4.5-6.8,7.2-17.1,7.2
			c-15.2,0-15.9-5.4-16.2-11.5h12.1c0.1,1.9,0.3,3.2,1.1,4.1c0.8,0.9,1.8,1.3,3.4,1.3c2.5,0,5.1-0.7,5.1-3.3c0-0.6-0.2-1.1-0.5-1.5
			c-1.6-2.1-15-3.7-18.7-7.6c-1.5-1.5-2-3.9-2-5.8c0-7.3,5.6-10.5,16.9-10.5c11.9,0,14.7,4.2,14.9,11h-11.6
			c-0.1-1.9-0.6-3.3-1.5-3.9c-0.8-0.7-1.5-0.9-2.7-0.9c-2.5,0.1-3.8,1.1-3.8,2.8c0,0.5,0.1,1.1,0.5,1.5c1.8,2.1,14.8,3.5,18.5,7.5
			c0.6,0.6,1.2,1.5,1.6,2.6v-7.7C4793.9-594.9,4797.9-595,4801.8-595.6"/>
	</g>
</g>
</svg>
