<?xml version="1.0" standalone="no"?>
<!DOCTYPE svg PUBLIC "-//W3C//DTD SVG 20010904//EN"
 "http://www.w3.org/TR/2001/REC-SVG-20010904/DTD/svg10.dtd">
<svg version="1.0" xmlns="http://www.w3.org/2000/svg"
 width="2560.000000pt" height="300.000000pt" viewBox="0 0 2560.000000 300.000000"
 preserveAspectRatio="xMidYMid meet">

<g transform="translate(0.000000,300.000000) scale(0.100000,-0.100000)"
fill="#918E8E" stroke="none">
<path d="M190 1500 l0 -1500 12610 0 12610 0 0 1500 0 1500 -12610 0 -12610 0
0 -1500z m13495 781 c50 -10 126 -33 170 -50 78 -32 185 -88 185 -97 0 -12
-82 -125 -88 -122 -4 2 -39 20 -79 41 -40 20 -112 49 -160 64 -79 23 -105 26
-248 27 -140 1 -169 -2 -231 -21 -96 -31 -161 -77 -201 -143 -58 -96 -42 -217
39 -285 71 -60 124 -74 408 -109 225 -28 294 -44 385 -86 85 -39 139 -90 176
-165 30 -61 31 -69 27 -157 -5 -117 -28 -169 -105 -246 -66 -66 -153 -112
-270 -144 -113 -31 -378 -32 -508 -1 -144 34 -375 136 -375 166 0 14 60 97 70
97 5 0 31 -13 57 -28 125 -74 291 -121 453 -129 325 -15 530 100 530 297 0
134 -83 209 -286 256 -34 7 -137 23 -230 34 -93 11 -196 27 -228 36 -136 36
-251 116 -298 208 -33 63 -37 202 -8 278 37 100 144 199 267 247 136 53 377
67 548 32z m-8740 -28 c126 -43 207 -93 295 -182 154 -155 228 -377 210 -626
l-5 -70 -573 -3 -572 -2 6 -28 c33 -138 145 -249 285 -281 150 -35 346 7 501
106 l27 17 97 -90 c53 -49 110 -100 126 -114 l30 -25 -24 -22 c-45 -42 -186
-120 -266 -146 -236 -78 -538 -76 -740 6 -104 42 -173 88 -258 173 -65 65 -89
98 -127 175 -65 132 -81 204 -81 374 0 169 15 240 80 374 78 159 227 291 400
352 113 39 181 48 344 45 143 -2 162 -5 245 -33z m10366 11 c442 -84 712 -465
635 -894 -55 -304 -270 -523 -596 -606 -60 -15 -108 -19 -240 -18 -150 1 -173
3 -255 28 -284 86 -481 282 -552 546 -24 89 -24 300 1 390 30 114 91 223 173
310 117 125 251 200 425 240 107 24 295 26 409 4z m8357 -13 c131 -38 275
-122 352 -206 l25 -27 -55 -49 -54 -49 -41 39 c-85 82 -222 150 -349 172 -42
7 -114 10 -180 6 -195 -9 -343 -73 -464 -201 -71 -76 -131 -189 -151 -284 -16
-76 -14 -247 4 -317 74 -289 335 -475 667 -475 335 1 571 192 613 498 l7 52
-276 0 -276 0 0 65 0 65 350 0 350 0 0 -52 c-1 -338 -218 -625 -546 -720 -69
-20 -100 -23 -244 -22 -149 1 -174 3 -253 27 -388 119 -605 433 -566 821 18
178 85 322 209 447 115 115 252 187 430 225 99 21 354 12 448 -15z m-21865
-38 c8 -27 74 -262 147 -523 73 -261 136 -478 139 -482 3 -4 75 231 160 522
l154 530 217 0 217 0 111 -367 c61 -203 132 -439 158 -525 26 -87 50 -158 54
-158 4 0 157 531 292 1018 l9 32 204 0 c113 0 205 -3 205 -7 0 -5 -103 -341
-228 -748 l-228 -740 -244 0 -244 0 -151 465 c-83 256 -153 471 -156 479 -3 7
-72 -202 -155 -465 l-149 -479 -244 0 -244 0 -223 724 c-122 398 -225 734
-228 747 l-6 24 209 0 210 0 14 -47z m4257 -538 l0 -585 345 0 345 0 0 -165 0
-165 -550 0 -550 0 0 750 0 750 205 0 205 0 0 -585z m1820 420 l0 -165 -240 0
-240 0 0 -585 0 -585 -200 0 -200 0 0 585 0 585 -235 0 -235 0 0 165 0 165
675 0 675 0 0 -165z m1731 -545 c176 -388 329 -724 339 -748 l19 -43 -81 3
-82 3 -96 210 -97 210 -420 3 -420 2 -98 -220 -98 -220 -75 0 c-44 0 -72 4
-70 10 2 5 154 345 338 755 l335 745 93 -2 93 -3 320 -705z m1137 126 c248
-469 308 -576 317 -563 6 8 147 270 314 581 l303 566 109 0 109 0 0 -750 0
-750 -70 0 -70 0 -2 673 -3 672 -311 -580 -310 -580 -78 0 -77 0 -302 568
-302 567 -3 -660 -2 -660 -75 0 -75 0 0 750 0 751 112 -3 111 -3 305 -579z
m6202 -47 l525 -631 3 631 2 631 80 0 80 0 -2 -747 -3 -748 -65 -3 -65 -2
-530 635 -530 635 -3 -635 -2 -635 -75 0 -75 0 0 750 0 750 68 -1 67 0 525
-630z m1785 -6 l530 -636 3 636 2 637 75 0 75 0 0 -750 0 -750 -67 0 -68 1
-530 635 -530 635 -3 -635 -2 -636 -75 0 -75 0 0 750 0 750 68 -1 67 0 530
-636z m2275 572 l0 -65 -295 0 -295 0 0 -685 0 -685 -70 0 -70 0 0 685 0 685
-292 2 -293 3 -3 63 -3 62 661 0 660 0 0 -65z m1112 -680 c185 -407 337 -743
337 -747 1 -5 -34 -8 -78 -8 l-78 0 -99 220 -98 220 -426 0 -425 0 -97 -218
-97 -217 -70 -3 -71 -3 23 53 c13 29 156 343 317 698 161 355 303 669 316 698
l24 53 92 -3 93 -3 337 -740z"/>
<path d="M4543 1952 c-110 -39 -175 -106 -214 -219 -10 -31 -19 -60 -19 -65 0
-4 163 -8 361 -8 l362 0 -6 37 c-16 97 -95 199 -187 242 -74 34 -219 41 -297
13z"/>
<path d="M14930 2129 c-254 -65 -426 -243 -476 -489 -57 -287 80 -570 337
-693 130 -63 222 -81 368 -74 265 12 473 137 570 340 53 111 66 172 65 302 -1
188 -55 326 -175 446 -80 81 -212 150 -331 174 -107 21 -265 19 -358 -6z"/>
<path d="M9181 2102 c-9 -18 -336 -740 -348 -769 -4 -10 71 -13 356 -13 199 0
361 4 361 8 0 9 -348 783 -355 790 -2 2 -8 -5 -14 -16z"/>
<path d="M21504 1727 l-181 -402 184 -3 c102 -1 265 -1 363 0 l179 3 -180 400
c-99 220 -181 400 -182 401 -1 1 -83 -178 -183 -399z"/>
</g>
</svg>
