<svg width="33" height="44" viewBox="0 0 33 44" fill="none" xmlns="http://www.w3.org/2000/svg">
<g id="Apple" filter="url(#filter0_d)">
<path id="Vector" d="M28.4089 25.9006C28.4089 32.4777 23.0771 35.4672 16.5 35.4672C9.92293 35.4672 4.59113 32.4777 4.59113 25.9006C4.59113 19.3235 7.23756 11.6494 16.5 14.2959C25.7624 10.3262 28.4089 19.3235 28.4089 25.9006Z" fill="#FF6584"/>
<path id="Vector_2" d="M15.9199 17.3769C15.4568 17.3776 15.0093 17.2096 14.6612 16.9042C14.3131 16.5988 14.0883 16.1769 14.0288 15.7177C13.6345 12.4364 11.4612 6.00969 10.5452 3.39933L10.5449 3.39835C10.4522 3.13892 10.4238 2.86081 10.4621 2.58798C10.5005 2.31516 10.6045 2.05575 10.7651 1.83194C10.9187 1.63184 11.1129 1.46653 11.335 1.3469C11.5571 1.22726 11.802 1.15596 12.0536 1.13779C12.3052 1.11961 12.5578 1.15495 12.7948 1.24143C13.0318 1.3279 13.2477 1.46361 13.4285 1.63956C13.5899 1.80881 13.7148 2.00946 13.7953 2.22904C13.8759 2.44862 13.9104 2.68243 13.8967 2.91593C13.7173 6.26652 16.1597 11.6806 17.6316 14.6103C17.7706 14.8864 17.8404 15.1922 17.835 15.5013C17.8296 15.8104 17.7492 16.1137 17.6006 16.3848C17.4521 16.6559 17.2399 16.8869 16.9823 17.0579C16.7247 17.2288 16.4294 17.3346 16.1218 17.3661C16.0548 17.3736 15.9874 17.3771 15.9199 17.3769V17.3769Z" fill="#3F3D56"/>
<path id="Vector_3" d="M24.732 9.98546C28.8659 6.60204 25.6226 -0.322161 20.4486 1.00707C19.7525 1.17336 19.1107 1.51573 18.5849 2.00127C15.4111 4.99938 14.9193 12.6703 14.9193 12.6703C14.9193 12.6703 20.5238 13.4297 24.732 9.98546Z" fill="#3F3D56"/>
</g>
<defs>
<filter id="filter0_d" x="0.591125" y="0.839752" width="31.8177" height="42.6274" filterUnits="userSpaceOnUse" color-interpolation-filters="sRGB">
<feFlood flood-opacity="0" result="BackgroundImageFix"/>
<feColorMatrix in="SourceAlpha" type="matrix" values="0 0 0 0 0 0 0 0 0 0 0 0 0 0 0 0 0 0 127 0"/>
<feOffset dy="4"/>
<feGaussianBlur stdDeviation="2"/>
<feColorMatrix type="matrix" values="0 0 0 0 0 0 0 0 0 0 0 0 0 0 0 0 0 0 0.25 0"/>
<feBlend mode="normal" in2="BackgroundImageFix" result="effect1_dropShadow"/>
<feBlend mode="normal" in="SourceGraphic" in2="effect1_dropShadow" result="shape"/>
</filter>
</defs>
</svg>
