<svg width="157" height="236" viewBox="0 0 157 236" fill="none" xmlns="http://www.w3.org/2000/svg">
<g id="Body" filter="url(#filter0_d)">
<path id="Vector" d="M61.405 200.826L60.69 188.588L107.556 180.003L108.612 198.067L61.405 200.826Z" fill="#F5D6A6"/>
<path id="Vector_2" d="M63.6754 179.641L65.0552 203.245L50.1937 204.113L47.9452 165.648C49.8969 165.534 51.8519 165.806 53.6986 166.447C55.5453 167.089 57.2477 168.087 58.7083 169.387C60.169 170.686 61.3595 172.261 62.2117 174.02C63.064 175.779 63.5613 177.689 63.6754 179.641Z" fill="#2F2E41"/>
<path id="Vector_3" d="M81.789 200.714L74.004 210.185L33.768 184.666L45.257 170.688L81.789 200.714Z" fill="#F5D6A6"/>
<path id="Vector_4" d="M65.7375 214.726L80.7506 196.46L92.2513 205.913L67.7854 235.679C66.2751 234.438 65.0241 232.911 64.1038 231.187C63.1836 229.462 62.612 227.573 62.4218 225.627C62.2317 223.681 62.4266 221.717 62.9955 219.847C63.5644 217.976 64.4961 216.236 65.7375 214.726V214.726Z" fill="#2F2E41"/>
<g id="Group 1">
<path id="Vector_5" d="M87.0591 54.5C101.971 54.5 114.059 42.4117 114.059 27.5C114.059 12.5883 101.971 0.5 87.0591 0.5C72.1474 0.5 60.0591 12.5883 60.0591 27.5C60.0591 42.4117 72.1474 54.5 87.0591 54.5Z" fill="#2F2E41"/>
<path id="Vector_6" d="M59.3866 156.67L54.0669 181.749C53.9444 182.326 53.9512 182.924 54.0869 183.498C54.2226 184.073 54.4837 184.61 54.8516 185.072C55.2194 185.533 55.6849 185.908 56.2146 186.168C56.7443 186.429 57.3251 186.569 57.9153 186.578L110.213 187.422C110.803 187.431 111.387 187.31 111.924 187.068C112.462 186.825 112.939 186.467 113.321 186.018C113.704 185.569 113.982 185.042 114.137 184.473C114.292 183.904 114.319 183.308 114.217 182.727L109.642 156.805C109.479 155.879 108.994 155.04 108.274 154.436C107.554 153.831 106.643 153.5 105.703 153.5H63.2996C62.3828 153.5 61.494 153.815 60.7817 154.392C60.0693 154.969 59.5769 155.773 59.3866 156.67V156.67Z" fill="#2F2E41"/>
<path id="Vector_7" d="M68.0591 165.5C68.0591 165.5 17.0591 133.5 7.05906 150.5C2.05906 159 4.55906 167.25 8.30906 173.375C11.7891 178.952 16.7845 183.423 22.7116 186.266L64.0591 206.5L79.0591 190.5L69.0591 181.5L68.0591 165.5Z" fill="#2F2E41"/>
<path id="Vector_8" d="M94.0591 160.5C94.0591 160.5 160.059 141.5 147.059 177.5C134.059 213.5 85.0591 199.5 85.0591 199.5L80.0591 184.5L97.0591 172.5L94.0591 160.5Z" fill="#2F2E41"/>
<path id="Vector_9" d="M70.2744 169.366C70.7721 167.983 71.5671 166.726 72.6033 165.683C73.6395 164.64 74.8918 163.837 76.2719 163.331C77.652 162.824 79.1263 162.627 80.5911 162.751C82.0558 162.876 83.4754 163.321 84.7497 164.054L111.736 140.63L114.178 159.038L88.1767 178.46C86.8035 180.519 84.7227 182.003 82.3285 182.631C79.9343 183.258 77.3931 182.986 75.1864 181.865C72.9797 180.744 71.2608 178.852 70.3555 176.549C69.4502 174.245 69.4213 171.69 70.2744 169.366V169.366Z" fill="#F5D6A6"/>
<path id="Vector_10" d="M100.136 167.173C99.6383 165.789 98.8434 164.532 97.8072 163.489C96.7709 162.446 95.5187 161.644 94.1386 161.137C92.7585 160.631 91.2842 160.433 89.8194 160.558C88.3546 160.683 86.9351 161.128 85.6607 161.86L58.6742 138.436L56.2326 156.844L82.2338 176.267C83.607 178.326 85.6878 179.81 88.082 180.437C90.4762 181.065 93.0174 180.792 95.2241 179.671C97.4308 178.55 99.1497 176.659 100.055 174.355C100.96 172.052 100.989 169.496 100.136 167.173V167.173Z" fill="#F5D6A6"/>
<g id="Pullover">
<g id="Vector_11" filter="url(#filter1_d)">
<path d="M88.6846 164.469C78.4787 164.314 68.3251 162.977 58.4275 160.482L58.135 160.402L44.4294 97.3575C43.1965 91.8175 44.0348 86.0178 46.786 81.0537C49.5373 76.0896 54.011 72.3048 59.3623 70.4141C75.8921 64.4833 93.9084 64.1235 110.662 69.3896H110.662C116.284 71.2012 121.015 75.0657 123.913 80.212C126.811 85.3583 127.663 91.4082 126.297 97.1543L110.989 160.35L110.773 160.452C104.411 163.466 96.456 164.469 88.6846 164.469Z" fill="white"/>
</g>
<path id="Vector_12" d="M96.0122 174.476C95.5731 174.475 95.1364 174.411 94.7158 174.285C94.033 174.086 93.4077 173.727 92.8923 173.237C92.3769 172.747 91.9864 172.141 91.7534 171.469L88.4961 162.24C88.1911 161.387 88.1524 160.462 88.3849 159.587C88.6175 158.711 89.1103 157.927 89.7983 157.338L126.567 135.264L112.073 70.6025L112.442 70.5137C112.592 70.4766 127.442 67.0967 133.527 83.3242C137.789 94.6895 153.559 119.401 152.446 136.101C152.235 139.441 150.904 142.612 148.668 145.103C146.432 147.594 143.422 149.259 140.124 149.828L98.7361 173.541C97.9566 174.145 96.9986 174.474 96.0122 174.476Z" fill="white"/>
<path id="Vector_13" d="M77.1059 174.476C76.1195 174.474 75.1615 174.145 74.382 173.541L29.9939 151.828C26.6957 151.259 23.6857 149.594 21.45 147.103C19.2142 144.612 17.8832 141.441 17.6719 138.101C16.5593 121.401 35.3293 94.6895 39.5908 83.3242C45.6758 67.0967 60.5264 70.4756 60.6765 70.5137L61.0452 70.6026L43.551 137.264L83.3198 157.338C84.0078 157.927 84.5007 158.711 84.7332 159.587C84.9657 160.462 84.927 161.387 84.622 162.24L81.3647 171.469C81.1317 172.141 80.7412 172.747 80.2258 173.237C79.7104 173.727 79.0851 174.086 78.4023 174.285C77.9817 174.411 77.545 174.475 77.1059 174.476V174.476Z" fill="white"/>
</g>
<path id="Vector_14" d="M130.059 184.5H41.0591C39.2032 184.498 37.424 183.76 36.1117 182.447C34.7994 181.135 34.0612 179.356 34.0591 177.5V128.5C34.0612 126.644 34.7994 124.865 36.1117 123.553C37.424 122.24 39.2032 121.502 41.0591 121.5H130.059C131.915 121.502 133.694 122.24 135.006 123.553C136.319 124.865 137.057 126.644 137.059 128.5V177.5C137.057 179.356 136.319 181.135 135.006 182.447C133.694 183.76 131.915 184.498 130.059 184.5V184.5Z" fill="#2595FF"/>
<path id="Vector_15" d="M85.5591 159C88.8728 159 91.5591 156.314 91.5591 153C91.5591 149.686 88.8728 147 85.5591 147C82.2454 147 79.5591 149.686 79.5591 153C79.5591 156.314 82.2454 159 85.5591 159Z" fill="white"/>
<g id="Head" filter="url(#filter2_d)">
<path id="Vector_16" d="M87.3976 58.2264C100.962 58.2264 111.959 47.23 111.959 33.6653C111.959 20.1007 100.962 9.10432 87.3976 9.10432C73.833 9.10432 62.8366 20.1007 62.8366 33.6653C62.8366 47.23 73.833 58.2264 87.3976 58.2264Z" fill="#F5D6A6"/>
<path id="Vector_17" d="M62.5906 32.6657C61.135 28.9734 63.5233 24.5733 67.0663 22.7847C70.6093 20.9961 74.8848 21.3363 78.6745 22.5151C81.8594 23.5057 84.8443 25.0409 87.9514 26.2535C91.0146 27.6109 94.3608 28.2069 97.7043 27.9904C101.019 27.6161 104.317 25.7576 105.673 22.7104C107.079 19.5518 106.123 15.6973 103.958 13.0016C101.655 10.3956 98.6738 8.47961 95.3465 7.46682C88.039 4.89239 79.5982 4.81713 72.8142 8.55932C66.0301 12.3015 61.4197 20.2695 62.822 27.8893" fill="#2F2E41"/>
</g>
</g>
</g>
<defs>
<filter id="filter0_d" x="0.259064" y="0.5" width="156.243" height="243.179" filterUnits="userSpaceOnUse" color-interpolation-filters="sRGB">
<feFlood flood-opacity="0" result="BackgroundImageFix"/>
<feColorMatrix in="SourceAlpha" type="matrix" values="0 0 0 0 0 0 0 0 0 0 0 0 0 0 0 0 0 0 127 0"/>
<feOffset dy="4"/>
<feGaussianBlur stdDeviation="2"/>
<feColorMatrix type="matrix" values="0 0 0 0 0 0 0 0 0 0 0 0 0 0 0 0 0 0 0.25 0"/>
<feBlend mode="normal" in2="BackgroundImageFix" result="effect1_dropShadow"/>
<feBlend mode="normal" in="SourceGraphic" in2="effect1_dropShadow" result="shape"/>
</filter>
<filter id="filter1_d" x="39.8747" y="65.687" width="91.0583" height="106.782" filterUnits="userSpaceOnUse" color-interpolation-filters="sRGB">
<feFlood flood-opacity="0" result="BackgroundImageFix"/>
<feColorMatrix in="SourceAlpha" type="matrix" values="0 0 0 0 0 0 0 0 0 0 0 0 0 0 0 0 0 0 127 0"/>
<feOffset dy="4"/>
<feGaussianBlur stdDeviation="2"/>
<feColorMatrix type="matrix" values="0 0 0 0 0 0 0 0 0 0 0 0 0 0 0 0 0 0 0.25 0"/>
<feBlend mode="normal" in2="BackgroundImageFix" result="effect1_dropShadow"/>
<feBlend mode="normal" in="SourceGraphic" in2="effect1_dropShadow" result="shape"/>
</filter>
<filter id="filter2_d" x="58.1568" y="5.62889" width="57.8018" height="60.5975" filterUnits="userSpaceOnUse" color-interpolation-filters="sRGB">
<feFlood flood-opacity="0" result="BackgroundImageFix"/>
<feColorMatrix in="SourceAlpha" type="matrix" values="0 0 0 0 0 0 0 0 0 0 0 0 0 0 0 0 0 0 127 0"/>
<feOffset dy="4"/>
<feGaussianBlur stdDeviation="2"/>
<feColorMatrix type="matrix" values="0 0 0 0 0 0 0 0 0 0 0 0 0 0 0 0 0 0 0.25 0"/>
<feBlend mode="normal" in2="BackgroundImageFix" result="effect1_dropShadow"/>
<feBlend mode="normal" in="SourceGraphic" in2="effect1_dropShadow" result="shape"/>
</filter>
</defs>
</svg>
