<svg id="logo" width="497" viewBox="0 0 497 98" fill="none" xmlns="http://www.w3.org/2000/svg">
    <path d="M26.2 4.60799C33.304 4.60799 39.512 6.01599 44.824 8.83199C50.136 11.648 54.232 15.616 57.112 20.736C60.056 25.792 61.528 31.648 61.528 38.304C61.528 44.896 60.056 50.752 57.112 55.872C54.232 60.992 50.104 64.96 44.728 67.776C39.416 70.592 33.24 72 26.2 72H0.951996V4.60799H26.2ZM25.144 57.792C31.352 57.792 36.184 56.096 39.64 52.704C43.096 49.312 44.824 44.512 44.824 38.304C44.824 32.096 43.096 27.264 39.64 23.808C36.184 20.352 31.352 18.624 25.144 18.624H17.368V57.792H25.144Z"
          stroke="#85FF9F"/>
    <path d="M121.198 44.352C121.198 45.888 121.102 47.488 120.91 49.152H83.758C84.014 52.48 85.07 55.04 86.926 56.832C88.846 58.56 91.182 59.424 93.934 59.424C98.03 59.424 100.878 57.696 102.478 54.24H119.95C119.054 57.76 117.422 60.928 115.054 63.744C112.75 66.56 109.838 68.768 106.318 70.368C102.798 71.968 98.862 72.768 94.51 72.768C89.262 72.768 84.59 71.648 80.494 69.408C76.398 67.168 73.198 63.968 70.894 59.808C68.59 55.648 67.438 50.784 67.438 45.216C67.438 39.648 68.558 34.784 70.798 30.624C73.102 26.464 76.302 23.264 80.398 21.024C84.494 18.784 89.198 17.664 94.51 17.664C99.694 17.664 104.302 18.752 108.334 20.928C112.366 23.104 115.502 26.208 117.742 30.24C120.046 34.272 121.198 38.976 121.198 44.352ZM104.398 40.032C104.398 37.216 103.438 34.976 101.518 33.312C99.598 31.648 97.198 30.816 94.318 30.816C91.566 30.816 89.23 31.616 87.31 33.216C85.454 34.816 84.302 37.088 83.854 40.032H104.398Z"
          stroke="#85FF9F"/>
    <path d="M153.954 56.64L165.57 18.432H183.042L164.034 72H143.778L124.77 18.432H142.338L153.954 56.64Z"
          stroke="#85FF9F"/>
    <path d="M240.448 44.352C240.448 45.888 240.352 47.488 240.16 49.152H203.008C203.264 52.48 204.32 55.04 206.176 56.832C208.096 58.56 210.432 59.424 213.184 59.424C217.28 59.424 220.128 57.696 221.728 54.24H239.2C238.304 57.76 236.672 60.928 234.304 63.744C232 66.56 229.088 68.768 225.568 70.368C222.048 71.968 218.112 72.768 213.76 72.768C208.512 72.768 203.84 71.648 199.744 69.408C195.648 67.168 192.448 63.968 190.144 59.808C187.84 55.648 186.688 50.784 186.688 45.216C186.688 39.648 187.808 34.784 190.048 30.624C192.352 26.464 195.552 23.264 199.648 21.024C203.744 18.784 208.448 17.664 213.76 17.664C218.944 17.664 223.552 18.752 227.584 20.928C231.616 23.104 234.752 26.208 236.992 30.24C239.296 34.272 240.448 38.976 240.448 44.352ZM223.648 40.032C223.648 37.216 222.688 34.976 220.768 33.312C218.848 31.648 216.448 30.816 213.568 30.816C210.816 30.816 208.48 31.616 206.56 33.216C204.704 34.816 203.552 37.088 203.104 40.032H223.648Z"
          stroke="#85FF9F"/>
    <path d="M265.524 0.959991V72H249.108V0.959991H265.524Z" stroke="#85FF9F"/>
    <path d="M301.805 72.768C296.557 72.768 291.821 71.648 287.597 69.408C283.437 67.168 280.141 63.968 277.709 59.808C275.341 55.648 274.157 50.784 274.157 45.216C274.157 39.712 275.373 34.88 277.805 30.72C280.237 26.496 283.565 23.264 287.789 21.024C292.013 18.784 296.749 17.664 301.997 17.664C307.245 17.664 311.981 18.784 316.205 21.024C320.429 23.264 323.757 26.496 326.189 30.72C328.621 34.88 329.837 39.712 329.837 45.216C329.837 50.72 328.589 55.584 326.093 59.808C323.661 63.968 320.301 67.168 316.013 69.408C311.789 71.648 307.053 72.768 301.805 72.768ZM301.805 58.56C304.941 58.56 307.597 57.408 309.773 55.104C312.013 52.8 313.133 49.504 313.133 45.216C313.133 40.928 312.045 37.632 309.869 35.328C307.757 33.024 305.133 31.872 301.997 31.872C298.797 31.872 296.141 33.024 294.029 35.328C291.917 37.568 290.861 40.864 290.861 45.216C290.861 49.504 291.885 52.8 293.933 55.104C296.045 57.408 298.669 58.56 301.805 58.56Z"
          stroke="#85FF9F"/>
    <path d="M354.962 26.016C356.562 23.52 358.77 21.504 361.586 19.968C364.402 18.432 367.698 17.664 371.474 17.664C375.89 17.664 379.89 18.784 383.474 21.024C387.058 23.264 389.874 26.464 391.922 30.624C394.034 34.784 395.09 39.616 395.09 45.12C395.09 50.624 394.034 55.488 391.922 59.712C389.874 63.872 387.058 67.104 383.474 69.408C379.89 71.648 375.89 72.768 371.474 72.768C367.762 72.768 364.466 72 361.586 70.464C358.77 68.928 356.562 66.944 354.962 64.512V97.536H338.546V18.432H354.962V26.016ZM378.386 45.12C378.386 41.024 377.234 37.824 374.93 35.52C372.69 33.152 369.906 31.968 366.578 31.968C363.314 31.968 360.53 33.152 358.226 35.52C355.986 37.888 354.866 41.12 354.866 45.216C354.866 49.312 355.986 52.544 358.226 54.912C360.53 57.28 363.314 58.464 366.578 58.464C369.842 58.464 372.626 57.28 374.93 54.912C377.234 52.48 378.386 49.216 378.386 45.12Z"
          stroke="#85FF9F"/>
    <path d="M454.198 44.352C454.198 45.888 454.102 47.488 453.91 49.152H416.758C417.014 52.48 418.07 55.04 419.926 56.832C421.846 58.56 424.182 59.424 426.934 59.424C431.03 59.424 433.878 57.696 435.478 54.24H452.95C452.054 57.76 450.422 60.928 448.054 63.744C445.75 66.56 442.838 68.768 439.318 70.368C435.798 71.968 431.862 72.768 427.51 72.768C422.262 72.768 417.59 71.648 413.494 69.408C409.398 67.168 406.198 63.968 403.894 59.808C401.59 55.648 400.438 50.784 400.438 45.216C400.438 39.648 401.558 34.784 403.798 30.624C406.102 26.464 409.302 23.264 413.398 21.024C417.494 18.784 422.198 17.664 427.51 17.664C432.694 17.664 437.302 18.752 441.334 20.928C445.366 23.104 448.502 26.208 450.742 30.24C453.046 34.272 454.198 38.976 454.198 44.352ZM437.398 40.032C437.398 37.216 436.438 34.976 434.518 33.312C432.598 31.648 430.198 30.816 427.318 30.816C424.566 30.816 422.23 31.616 420.31 33.216C418.454 34.816 417.302 37.088 416.854 40.032H437.398Z"
          stroke="#85FF9F"/>
    <path d="M479.274 27.36C481.194 24.416 483.594 22.112 486.474 20.448C489.354 18.72 492.554 17.856 496.074 17.856V35.232H491.562C487.466 35.232 484.394 36.128 482.346 37.92C480.298 39.648 479.274 42.72 479.274 47.136V72H462.858V18.432H479.274V27.36Z"
          stroke="#85FF9F"/>
</svg>
