<svg width="659" height="422" viewBox="0 0 659 422" fill="none" xmlns="http://www.w3.org/2000/svg">
<g id="undraw_Freelancer_re_irh4 1" clip-path="url(#clip0)" filter="url(#filter0_d)">
<path id="Border" d="M386 363.5H5C4.73478 363.5 4.48044 363.395 4.29291 363.207C4.10537 363.02 4 362.765 4 362.5C4 362.235 4.10537 361.98 4.29291 361.793C4.48044 361.605 4.73478 361.5 5 361.5H386C386.265 361.5 386.52 361.605 386.707 361.793C386.895 361.98 387 362.235 387 362.5C387 362.765 386.895 363.02 386.707 363.207C386.52 363.395 386.265 363.5 386 363.5Z" fill="#3F3D56"/>
<g id="Body" filter="url(#filter1_d)">
<path id="Vector" d="M177.405 378.826L176.69 366.588L223.556 358.003L224.612 376.067L177.405 378.826Z" fill="#F5D6A6"/>
<path id="Vector_2" d="M179.675 357.641L181.055 381.245L166.194 382.113L163.945 343.648C165.897 343.534 167.852 343.806 169.699 344.447C171.545 345.089 173.248 346.087 174.708 347.387C176.169 348.686 177.359 350.261 178.212 352.02C179.064 353.779 179.561 355.689 179.675 357.641Z" fill="#2F2E41"/>
<path id="Vector_3" d="M197.789 378.714L190.004 388.185L149.768 362.666L161.257 348.688L197.789 378.714Z" fill="#F5D6A6"/>
<path id="Vector_4" d="M181.737 392.726L196.751 374.46L208.251 383.913L183.785 413.679C182.275 412.438 181.024 410.911 180.104 409.187C179.184 407.462 178.612 405.573 178.422 403.627C178.232 401.681 178.427 399.717 178.996 397.847C179.564 395.976 180.496 394.236 181.737 392.726V392.726Z" fill="#2F2E41"/>
<g id="Group 1">
<path id="Vector_5" d="M203.059 232.5C217.971 232.5 230.059 220.412 230.059 205.5C230.059 190.588 217.971 178.5 203.059 178.5C188.147 178.5 176.059 190.588 176.059 205.5C176.059 220.412 188.147 232.5 203.059 232.5Z" fill="#2F2E41"/>
<path id="Vector_6" d="M175.387 334.67L170.067 359.749C169.944 360.326 169.951 360.924 170.087 361.498C170.223 362.073 170.484 362.61 170.852 363.072C171.219 363.533 171.685 363.908 172.215 364.168C172.744 364.429 173.325 364.569 173.915 364.578L226.213 365.422C226.803 365.431 227.387 365.31 227.924 365.068C228.462 364.825 228.939 364.467 229.321 364.018C229.704 363.569 229.982 363.042 230.137 362.473C230.292 361.904 230.319 361.308 230.217 360.727L225.642 334.805C225.479 333.879 224.994 333.04 224.274 332.436C223.554 331.831 222.643 331.5 221.703 331.5H179.3C178.383 331.5 177.494 331.815 176.782 332.392C176.069 332.969 175.577 333.773 175.387 334.67V334.67Z" fill="#2F2E41"/>
<path id="Vector_7" d="M184.059 343.5C184.059 343.5 133.059 311.5 123.059 328.5C118.059 337 120.559 345.25 124.309 351.375C127.789 356.952 132.785 361.423 138.712 364.266L180.059 384.5L195.059 368.5L185.059 359.5L184.059 343.5Z" fill="#2F2E41"/>
<path id="Vector_8" d="M210.059 338.5C210.059 338.5 276.059 319.5 263.059 355.5C250.059 391.5 201.059 377.5 201.059 377.5L196.059 362.5L213.059 350.5L210.059 338.5Z" fill="#2F2E41"/>
<path id="Vector_9" d="M186.274 347.366C186.772 345.983 187.567 344.726 188.603 343.683C189.64 342.64 190.892 341.837 192.272 341.331C193.652 340.824 195.126 340.627 196.591 340.751C198.056 340.876 199.475 341.321 200.75 342.054L227.736 318.63L230.178 337.038L204.177 356.46C202.804 358.519 200.723 360.003 198.328 360.631C195.934 361.258 193.393 360.986 191.186 359.865C188.98 358.744 187.261 356.852 186.355 354.549C185.45 352.245 185.421 349.69 186.274 347.366V347.366Z" fill="#F5D6A6"/>
<path id="Vector_10" d="M216.136 345.173C215.638 343.789 214.843 342.532 213.807 341.489C212.771 340.446 211.519 339.644 210.139 339.137C208.759 338.631 207.284 338.433 205.819 338.558C204.355 338.683 202.935 339.128 201.661 339.86L174.674 316.436L172.233 334.844L198.234 354.267C199.607 356.326 201.688 357.81 204.082 358.437C206.476 359.065 209.017 358.792 211.224 357.671C213.431 356.55 215.15 354.659 216.055 352.355C216.96 350.052 216.989 347.496 216.136 345.173V345.173Z" fill="#F5D6A6"/>
<g id="Pullover">
<g id="Vector_11" filter="url(#filter2_d)">
<path d="M204.685 342.469C194.479 342.314 184.325 340.977 174.427 338.482L174.135 338.402L160.429 275.357C159.196 269.817 160.035 264.018 162.786 259.054C165.537 254.09 170.011 250.305 175.362 248.414C191.892 242.483 209.908 242.124 226.662 247.39H226.662C232.284 249.201 237.015 253.066 239.913 258.212C242.811 263.358 243.663 269.408 242.297 275.154L226.989 338.35L226.773 338.452C220.411 341.466 212.456 342.469 204.685 342.469Z" fill="white"/>
</g>
<path id="Vector_12" d="M212.012 352.476C211.573 352.475 211.136 352.411 210.716 352.285C210.033 352.086 209.408 351.727 208.892 351.237C208.377 350.747 207.986 350.141 207.753 349.469L204.496 340.24C204.191 339.387 204.152 338.462 204.385 337.587C204.617 336.711 205.11 335.927 205.798 335.338L242.567 313.264L228.073 248.603L228.442 248.514C228.592 248.477 243.442 245.097 249.527 261.324C253.789 272.689 269.559 297.401 268.446 314.101C268.235 317.441 266.904 320.612 264.668 323.103C262.432 325.594 259.422 327.259 256.124 327.828L214.736 351.541C213.957 352.145 212.999 352.474 212.012 352.476Z" fill="white"/>
<path id="Vector_13" d="M193.106 352.476C192.12 352.474 191.162 352.145 190.382 351.541L145.994 329.828C142.696 329.259 139.686 327.594 137.45 325.103C135.214 322.612 133.883 319.441 133.672 316.101C132.559 299.401 151.329 272.689 155.591 261.324C161.676 245.097 176.526 248.476 176.677 248.514L177.045 248.603L159.551 315.264L199.32 335.338C200.008 335.927 200.501 336.711 200.733 337.587C200.966 338.462 200.927 339.387 200.622 340.24L197.365 349.469C197.132 350.141 196.741 350.747 196.226 351.237C195.71 351.727 195.085 352.086 194.402 352.285C193.982 352.411 193.545 352.475 193.106 352.476V352.476Z" fill="white"/>
</g>
<path id="Vector_14" d="M246.059 362.5H157.059C155.203 362.498 153.424 361.76 152.112 360.447C150.799 359.135 150.061 357.356 150.059 355.5V306.5C150.061 304.644 150.799 302.865 152.112 301.553C153.424 300.24 155.203 299.502 157.059 299.5H246.059C247.915 299.502 249.694 300.24 251.006 301.553C252.319 302.865 253.057 304.644 253.059 306.5V355.5C253.057 357.356 252.319 359.135 251.006 360.447C249.694 361.76 247.915 362.498 246.059 362.5V362.5Z" fill="#2595FF"/>
<path id="Vector_15" d="M201.559 337C204.873 337 207.559 334.314 207.559 331C207.559 327.686 204.873 325 201.559 325C198.245 325 195.559 327.686 195.559 331C195.559 334.314 198.245 337 201.559 337Z" fill="white"/>
<g id="Head" filter="url(#filter3_d)">
<path id="Vector_16" d="M203.398 236.226C216.962 236.226 227.959 225.23 227.959 211.665C227.959 198.101 216.962 187.104 203.398 187.104C189.833 187.104 178.837 198.101 178.837 211.665C178.837 225.23 189.833 236.226 203.398 236.226Z" fill="#F5D6A6"/>
<path id="Vector_17" d="M178.591 210.666C177.135 206.973 179.523 202.573 183.066 200.785C186.609 198.996 190.885 199.336 194.675 200.515C197.859 201.506 200.844 203.041 203.951 204.254C207.015 205.611 210.361 206.207 213.704 205.99C217.019 205.616 220.317 203.758 221.673 200.71C223.079 197.552 222.123 193.697 219.958 191.002C217.655 188.396 214.674 186.48 211.346 185.467C204.039 182.892 195.598 182.817 188.814 186.559C182.03 190.302 177.42 198.27 178.822 205.889" fill="#2F2E41"/>
</g>
</g>
</g>
<path id="Bubble 3" d="M55.3814 305.724C60.5808 305.724 64.7958 301.509 64.7958 296.31C64.7958 291.111 60.5808 286.896 55.3814 286.896C50.182 286.896 45.967 291.111 45.967 296.31C45.967 301.509 50.182 305.724 55.3814 305.724Z" fill="#2595FF"/>
<path id="Bubble 2" d="M49.7694 322.165C53.1425 322.165 55.8769 319.431 55.8769 316.058C55.8769 312.685 53.1425 309.95 49.7694 309.95C46.3963 309.95 43.6618 312.685 43.6618 316.058C43.6618 319.431 46.3963 322.165 49.7694 322.165Z" fill="#2595FF"/>
<path id="Bubble 1" d="M23.8347 321.736C27.2078 321.736 29.9423 319.002 29.9423 315.629C29.9423 312.256 27.2078 309.521 23.8347 309.521C20.4616 309.521 17.7271 312.256 17.7271 315.629C17.7271 319.002 20.4616 321.736 23.8347 321.736Z" fill="#2595FF"/>
<g id="Apple" filter="url(#filter4_d)">
<path id="Vector_18" d="M318.409 370.901C318.409 377.478 313.077 380.467 306.5 380.467C299.923 380.467 294.591 377.478 294.591 370.901C294.591 364.324 297.238 356.649 306.5 359.296C315.762 355.326 318.409 364.324 318.409 370.901Z" fill="#FF6584"/>
<path id="Vector_19" d="M305.92 362.377C305.457 362.378 305.009 362.21 304.661 361.904C304.313 361.599 304.088 361.177 304.029 360.718C303.635 357.436 301.461 351.01 300.545 348.399L300.545 348.398C300.452 348.139 300.424 347.861 300.462 347.588C300.501 347.315 300.604 347.056 300.765 346.832C300.919 346.632 301.113 346.467 301.335 346.347C301.557 346.227 301.802 346.156 302.054 346.138C302.305 346.12 302.558 346.155 302.795 346.241C303.032 346.328 303.248 346.464 303.428 346.64C303.59 346.809 303.715 347.009 303.795 347.229C303.876 347.449 303.91 347.682 303.897 347.916C303.717 351.267 306.16 356.681 307.632 359.61C307.771 359.886 307.84 360.192 307.835 360.501C307.83 360.81 307.749 361.114 307.601 361.385C307.452 361.656 307.24 361.887 306.982 362.058C306.725 362.229 306.429 362.335 306.122 362.366C306.055 362.374 305.987 362.377 305.92 362.377V362.377Z" fill="#3F3D56"/>
<path id="Vector_20" d="M314.732 354.985C318.866 351.602 315.623 344.678 310.449 346.007C309.752 346.173 309.111 346.516 308.585 347.001C305.411 349.999 304.919 357.67 304.919 357.67C304.919 357.67 310.524 358.43 314.732 354.985Z" fill="#3F3D56"/>
</g>
</g>
<defs>
<filter id="filter0_d" x="0" y="0" width="663" height="421.68" filterUnits="userSpaceOnUse" color-interpolation-filters="sRGB">
<feFlood flood-opacity="0" result="BackgroundImageFix"/>
<feColorMatrix in="SourceAlpha" type="matrix" values="0 0 0 0 0 0 0 0 0 0 0 0 0 0 0 0 0 0 127 0"/>
<feOffset dy="4"/>
<feGaussianBlur stdDeviation="2"/>
<feColorMatrix type="matrix" values="0 0 0 0 0 0 0 0 0 0 0 0 0 0 0 0 0 0 0.25 0"/>
<feBlend mode="normal" in2="BackgroundImageFix" result="effect1_dropShadow"/>
<feBlend mode="normal" in="SourceGraphic" in2="effect1_dropShadow" result="shape"/>
</filter>
<filter id="filter1_d" x="116.259" y="178.5" width="156.243" height="243.179" filterUnits="userSpaceOnUse" color-interpolation-filters="sRGB">
<feFlood flood-opacity="0" result="BackgroundImageFix"/>
<feColorMatrix in="SourceAlpha" type="matrix" values="0 0 0 0 0 0 0 0 0 0 0 0 0 0 0 0 0 0 127 0"/>
<feOffset dy="4"/>
<feGaussianBlur stdDeviation="2"/>
<feColorMatrix type="matrix" values="0 0 0 0 0 0 0 0 0 0 0 0 0 0 0 0 0 0 0.25 0"/>
<feBlend mode="normal" in2="BackgroundImageFix" result="effect1_dropShadow"/>
<feBlend mode="normal" in="SourceGraphic" in2="effect1_dropShadow" result="shape"/>
</filter>
<filter id="filter2_d" x="155.875" y="243.687" width="91.0583" height="106.782" filterUnits="userSpaceOnUse" color-interpolation-filters="sRGB">
<feFlood flood-opacity="0" result="BackgroundImageFix"/>
<feColorMatrix in="SourceAlpha" type="matrix" values="0 0 0 0 0 0 0 0 0 0 0 0 0 0 0 0 0 0 127 0"/>
<feOffset dy="4"/>
<feGaussianBlur stdDeviation="2"/>
<feColorMatrix type="matrix" values="0 0 0 0 0 0 0 0 0 0 0 0 0 0 0 0 0 0 0.25 0"/>
<feBlend mode="normal" in2="BackgroundImageFix" result="effect1_dropShadow"/>
<feBlend mode="normal" in="SourceGraphic" in2="effect1_dropShadow" result="shape"/>
</filter>
<filter id="filter3_d" x="174.157" y="183.629" width="57.8018" height="60.5975" filterUnits="userSpaceOnUse" color-interpolation-filters="sRGB">
<feFlood flood-opacity="0" result="BackgroundImageFix"/>
<feColorMatrix in="SourceAlpha" type="matrix" values="0 0 0 0 0 0 0 0 0 0 0 0 0 0 0 0 0 0 127 0"/>
<feOffset dy="4"/>
<feGaussianBlur stdDeviation="2"/>
<feColorMatrix type="matrix" values="0 0 0 0 0 0 0 0 0 0 0 0 0 0 0 0 0 0 0.25 0"/>
<feBlend mode="normal" in2="BackgroundImageFix" result="effect1_dropShadow"/>
<feBlend mode="normal" in="SourceGraphic" in2="effect1_dropShadow" result="shape"/>
</filter>
<filter id="filter4_d" x="290.591" y="345.84" width="31.8177" height="42.6274" filterUnits="userSpaceOnUse" color-interpolation-filters="sRGB">
<feFlood flood-opacity="0" result="BackgroundImageFix"/>
<feColorMatrix in="SourceAlpha" type="matrix" values="0 0 0 0 0 0 0 0 0 0 0 0 0 0 0 0 0 0 127 0"/>
<feOffset dy="4"/>
<feGaussianBlur stdDeviation="2"/>
<feColorMatrix type="matrix" values="0 0 0 0 0 0 0 0 0 0 0 0 0 0 0 0 0 0 0.25 0"/>
<feBlend mode="normal" in2="BackgroundImageFix" result="effect1_dropShadow"/>
<feBlend mode="normal" in="SourceGraphic" in2="effect1_dropShadow" result="shape"/>
</filter>
<clipPath id="clip0">
<rect width="655" height="413.68" fill="white" transform="translate(4)"/>
</clipPath>
</defs>
</svg>
