<svg width="605" height="102" viewBox="0 0 605 102" fill="none" xmlns="http://www.w3.org/2000/svg">

    <path d="M36.144 96.896C30.256 96.896 24.9654 95.872 20.272 93.824C15.664 91.6907 12.0374 88.7893 9.39202 85.12C6.74669 81.3653 5.38135 77.056 5.29602 72.192H17.712C18.1387 76.3733 19.8454 79.9147 22.832 82.816C25.904 85.632 30.3414 87.04 36.144 87.04C41.6907 87.04 46.0427 85.6747 49.2 82.944C52.4427 80.128 54.064 76.544 54.064 72.192C54.064 68.7787 53.1254 66.0053 51.248 63.872C49.3707 61.7387 47.024 60.1173 44.208 59.008C41.392 57.8987 37.5947 56.704 32.816 55.424C26.928 53.888 22.192 52.352 18.608 50.816C15.1094 49.28 12.08 46.8907 9.52002 43.648C7.04535 40.32 5.80802 35.8827 5.80802 30.336C5.80802 25.472 7.04535 21.1627 9.52002 17.408C11.9947 13.6533 15.4507 10.752 19.888 8.70399C24.4107 6.65599 29.5734 5.63199 35.376 5.63199C43.7387 5.63199 50.5654 7.72266 55.856 11.904C61.232 16.0853 64.2614 21.632 64.944 28.544H52.144C51.7174 25.1307 49.9254 22.144 46.768 19.584C43.6107 16.9387 39.4294 15.616 34.224 15.616C29.36 15.616 25.392 16.896 22.32 19.456C19.248 21.9307 17.712 25.4293 17.712 29.952C17.712 33.1947 18.608 35.84 20.4 37.888C22.2774 39.936 24.5387 41.5147 27.184 42.624C29.9147 43.648 33.712 44.8427 38.576 46.208C44.464 47.8293 49.2 49.4507 52.784 51.072C56.368 52.608 59.44 55.04 62 58.368C64.56 61.6107 65.84 66.048 65.84 71.68C65.84 76.032 64.688 80.128 62.384 83.968C60.08 87.808 56.6667 90.9227 52.144 93.312C47.6214 95.7013 42.288 96.896 36.144 96.896Z" stroke="#85FF9F" stroke-width="10" mask="url(#path-1-outside-1_2_2)"/>
    <path d="M78.629 51.328C78.629 42.624 80.5917 34.816 84.517 27.904C88.4424 20.9067 93.7757 15.4453 100.517 11.52C107.344 7.59466 114.896 5.63199 123.173 5.63199C132.901 5.63199 141.392 7.97866 148.645 12.672C155.898 17.3653 161.189 24.0213 164.517 32.64H150.565C148.09 27.264 144.506 23.1253 139.813 20.224C135.205 17.3227 129.658 15.872 123.173 15.872C116.944 15.872 111.354 17.3227 106.405 20.224C101.456 23.1253 97.573 27.264 94.757 32.64C91.941 37.9307 90.533 44.16 90.533 51.328C90.533 58.4107 91.941 64.64 94.757 70.016C97.573 75.3067 101.456 79.4027 106.405 82.304C111.354 85.2053 116.944 86.656 123.173 86.656C129.658 86.656 135.205 85.248 139.813 82.432C144.506 79.5307 148.09 75.392 150.565 70.016H164.517C161.189 78.5493 155.898 85.1627 148.645 89.856C141.392 94.464 132.901 96.768 123.173 96.768C114.896 96.768 107.344 94.848 100.517 91.008C93.7757 87.0827 88.4424 81.664 84.517 74.752C80.5917 67.84 78.629 60.032 78.629 51.328Z" stroke="#85FF9F" stroke-width="10" mask="url(#path-1-outside-1_2_2)"/>
    <path d="M193.504 6.78399V96H181.856V6.78399H193.504Z" stroke="#85FF9F" stroke-width="10" mask="url(#path-1-outside-1_2_2)"/>
    <path d="M225.004 16.256V46.08H257.516V55.68H225.004V86.4H261.356V96H213.356V6.65599H261.356V16.256H225.004Z" stroke="#85FF9F" stroke-width="10" mask="url(#path-1-outside-1_2_2)"/>
    <path d="M349.125 96H337.477L290.629 24.96V96H278.981V6.65599H290.629L337.477 77.568V6.65599H349.125V96Z" stroke="#85FF9F" stroke-width="10" mask="url(#path-1-outside-1_2_2)"/>
    <path d="M423.893 6.78399V16.256H399.573V96H387.925V16.256H363.477V6.78399H423.893Z" stroke="#85FF9F" stroke-width="10" mask="url(#path-1-outside-1_2_2)"/>
    <path d="M449.879 6.78399V96H438.231V6.78399H449.879Z" stroke="#85FF9F" stroke-width="10" mask="url(#path-1-outside-1_2_2)"/>
    <path d="M498.019 96.896C492.131 96.896 486.84 95.872 482.147 93.824C477.539 91.6907 473.912 88.7893 471.267 85.12C468.622 81.3653 467.256 77.056 467.171 72.192H479.587C480.014 76.3733 481.72 79.9147 484.707 82.816C487.779 85.632 492.216 87.04 498.019 87.04C503.566 87.04 507.918 85.6747 511.075 82.944C514.318 80.128 515.939 76.544 515.939 72.192C515.939 68.7787 515 66.0053 513.123 63.872C511.246 61.7387 508.899 60.1173 506.083 59.008C503.267 57.8987 499.47 56.704 494.691 55.424C488.803 53.888 484.067 52.352 480.483 50.816C476.984 49.28 473.955 46.8907 471.395 43.648C468.92 40.32 467.683 35.8827 467.683 30.336C467.683 25.472 468.92 21.1627 471.395 17.408C473.87 13.6533 477.326 10.752 481.763 8.70399C486.286 6.65599 491.448 5.63199 497.251 5.63199C505.614 5.63199 512.44 7.72266 517.731 11.904C523.107 16.0853 526.136 21.632 526.819 28.544H514.019C513.592 25.1307 511.8 22.144 508.643 19.584C505.486 16.9387 501.304 15.616 496.099 15.616C491.235 15.616 487.267 16.896 484.195 19.456C481.123 21.9307 479.587 25.4293 479.587 29.952C479.587 33.1947 480.483 35.84 482.275 37.888C484.152 39.936 486.414 41.5147 489.059 42.624C491.79 43.648 495.587 44.8427 500.451 46.208C506.339 47.8293 511.075 49.4507 514.659 51.072C518.243 52.608 521.315 55.04 523.875 58.368C526.435 61.6107 527.715 66.048 527.715 71.68C527.715 76.032 526.563 80.128 524.259 83.968C521.955 87.808 518.542 90.9227 514.019 93.312C509.496 95.7013 504.163 96.896 498.019 96.896Z" stroke="#85FF9F" stroke-width="10" mask="url(#path-1-outside-1_2_2)"/>
    <path d="M599.768 6.78399V16.256H575.448V96H563.8V16.256H539.352V6.78399H599.768Z" stroke="#85FF9F" stroke-width="10" mask="url(#path-1-outside-1_2_2)"/>
</svg>
